<svg xmlns="http://www.w3.org/2000/svg" width="147" height="58" viewBox="0 0 147 58" fill="none"><g clip-path="url(#clip0_161_1424)"><path d="M18.7444 24.5132C18.7441 25.3989 18.7918 26.2841 18.8874 27.1649C21.0626 25.9318 23.5907 25.4156 26.0935 25.6935C28.5962 25.9714 30.9389 27.0286 32.7709 28.7067C35.1009 25.0084 35.8951 20.5886 34.9926 16.3431C34.09 12.0976 31.5581 8.3439 27.9101 5.84277C25.0442 8.09429 22.7337 10.9396 21.1478 14.1701C19.5618 17.4007 18.7407 20.9347 18.7444 24.5132Z" fill="#C73418"></path><path d="M36.5356 37.0018C36.5339 35.4482 36.203 33.9115 35.5636 32.4873C34.9241 31.063 33.9898 29.7816 32.8185 28.7227C30.3965 32.559 26.526 35.3251 22.0326 36.4313C24.393 40.441 27.888 43.7101 32.1037 45.8513C33.4786 44.7929 34.5907 43.4481 35.3578 41.9163C36.125 40.3845 36.5275 38.7049 36.5356 37.0018Z" fill="#008541"></path><path d="M21.9848 36.4162C20.5732 36.769 19.1218 36.9502 17.6641 36.9558C16.1294 36.945 14.6026 36.7429 13.121 36.3545C13.121 36.5549 13.121 36.7553 13.121 36.9558C13.1176 39.0899 13.7351 41.1815 14.9026 42.9899C16.0701 44.7984 17.7399 46.2501 19.7201 47.178C21.7002 48.1059 23.91 48.4722 26.0952 48.2348C28.2804 47.9974 30.3521 47.166 32.0718 45.8361C27.8503 43.6973 24.3495 40.428 21.9848 36.4162Z" fill="#009FE3"></path><path d="M43.5091 0.477547C37.8287 0.473123 32.32 2.3678 27.91 5.84278C31.5496 8.34311 34.0758 12.091 34.978 16.3293C35.8803 20.5676 35.0915 24.9803 32.7709 28.6758C34.0008 29.7873 34.9686 31.1438 35.608 32.6521C36.2475 34.1605 36.5434 35.7853 36.4755 37.415C36.4076 39.0447 35.9775 40.641 35.2147 42.0943C34.4519 43.5477 33.3744 44.8238 32.056 45.8353C35.3843 47.5161 39.0625 48.4408 42.813 48.5399C46.5634 48.6389 50.288 47.9096 53.7055 46.407C57.123 44.9045 60.1441 42.6679 62.5406 39.8662C64.9371 37.0645 66.6465 33.771 67.5395 30.2343C68.4325 26.6976 68.4859 23.0102 67.6957 19.4505C66.9054 15.8909 65.2922 12.552 62.9778 9.68603C60.6633 6.82007 57.7082 4.50196 54.3356 2.90674C50.9629 1.31151 47.2609 0.480872 43.5091 0.477547Z" fill="#FFD500"></path><path d="M27.91 5.84294C25.8048 4.39258 23.3975 3.40814 20.8577 2.95903C18.3179 2.50993 15.7075 2.6071 13.2106 3.24369C10.7137 3.88028 8.39106 5.04079 6.40656 6.64338C4.42205 8.24597 2.82397 10.2516 1.72501 12.5189C0.626053 14.7861 0.0529787 17.2597 0.0462034 19.7653C0.039428 22.2709 0.599117 24.7475 1.6858 27.0203C2.77248 29.2931 4.3597 31.3069 6.33551 32.9195C8.31132 34.5322 10.6276 35.7045 13.121 36.3538C13.2135 34.4681 13.7892 32.6345 14.7961 31.0193C15.8029 29.404 17.2092 28.0581 18.8873 27.1034C18.7917 26.2226 18.744 25.3374 18.7443 24.4517C18.7501 20.8836 19.5758 17.3616 21.1614 14.1424C22.747 10.9233 25.0525 8.0879 27.91 5.84294Z" fill="#D1338A"></path><path d="M18.8873 27.1649C19.26 30.421 20.314 33.5688 21.9849 36.4153C26.4784 35.3091 30.3488 32.5429 32.7708 28.7066C30.9388 27.0285 28.5962 25.9714 26.0934 25.6935C23.5907 25.4156 21.0625 25.9318 18.8873 27.1649Z" fill="#2B352F"></path><path d="M13.1211 36.3538C14.6027 36.7422 16.1296 36.9443 17.6642 36.955C19.1219 36.9495 20.5733 36.7683 21.9849 36.4154C20.3141 33.5689 19.26 30.4211 18.8874 27.165C17.2179 28.114 15.8172 29.4503 14.8108 31.054C13.8044 32.6577 13.2239 34.4787 13.1211 36.3538Z" fill="#213B87"></path><path d="M58.584 43.0303L54.0726 45.975L62.7776 48.6422L58.584 43.0303Z" fill="#FFD500"></path><path d="M16.3299 43.9854L13.137 48.6414L19.6975 46.19L16.3299 43.9854Z" fill="#009FE3"></path><path d="M8.13316 32.8699L4.00305 30.1719L0.0953369 35.8609L8.13316 32.8699Z" fill="#DC2597"></path><path d="M34.1369 57.8146H33.5651V53.6057H32.0878V53.1123H35.6301V53.6057H34.1369V57.8146Z" fill="#1D1D1B"></path><path d="M34.1369 57.8153V57.7382H33.6604V53.5139H32.1672V53.1901H35.5348V53.5139H34.0416V57.8153H34.1369V57.7382V57.8153H34.2322V53.6835H35.7095V53.113V53.0205H31.9924V53.6064V53.6835H33.4856V57.9078H34.1369H34.2322V57.8153H34.1369Z" fill="#2B352F"></path><path d="M45.4153 57.8146H44.8434V55.6253H42.3336V57.8146H41.7617V53.1123H42.3336V55.132H44.8434V53.1123H45.4153V57.8146Z" fill="#1D1D1B"></path><path d="M45.4152 57.8153V57.7382H44.9387V55.5335H42.2382V57.7382H41.8411V53.1901H42.2382V55.2098H44.9387V53.1901H45.3199V57.8153H45.4152V57.7382V57.8153H45.4947V53.0205H44.8434H44.7481V55.0402H42.413V53.0205H41.7617H41.6664V57.9078H42.3336H42.413V55.7031H44.7481V57.9078H45.4152H45.4947V57.8153H45.4152Z" fill="#2B352F"></path><path d="M54.9463 57.3212V57.8146H52.0552V53.1123H54.9463V53.6057H52.627V55.1628H54.8192V55.6562H52.627V57.3212H54.9463Z" fill="#1D1D1B"></path><path d="M54.9463 57.3219H54.851V57.7382H52.1506V53.1901H54.851V53.5293H52.5477V55.2406H54.7239V55.5798H52.5477V57.399H54.9463V57.3219V57.2294H52.7224V55.7494H54.8987V55.1635V55.071H52.7224V53.6989H55.0257V53.113V53.0205H51.9758V57.9078H55.0257V57.3219V57.2294H54.9463V57.3219Z" fill="#2B352F"></path><path d="M71.8479 54.5308H71.2919C71.2819 54.3815 71.24 54.2359 71.1689 54.1032C71.0978 53.9705 70.9991 53.8536 70.8789 53.7599C70.646 53.59 70.36 53.5029 70.0688 53.5132C69.8867 53.5058 69.7052 53.5379 69.5376 53.6072C69.3699 53.6766 69.2204 53.7814 69.0998 53.9141C68.8186 54.2527 68.6821 54.6832 68.7186 55.1166V55.7796C68.6865 56.2078 68.8102 56.6333 69.068 56.9821C69.1828 57.1273 69.3328 57.2427 69.5046 57.318C69.6765 57.3933 69.8648 57.4262 70.0529 57.4138C70.3816 57.4279 70.7041 57.3235 70.9584 57.1209C71.0734 57.0268 71.1647 56.9085 71.2253 56.7748C71.2859 56.6412 71.3141 56.4959 71.3078 56.35V55.8721H70.0053V55.3787H71.8638V56.35C71.8869 56.4827 71.8869 56.6182 71.8638 56.7509C71.8206 56.8952 71.7621 57.0347 71.6891 57.1672C71.5952 57.3042 71.483 57.4287 71.3555 57.5372C71.2004 57.661 71.0225 57.7552 70.8313 57.8147C70.5999 57.8853 70.359 57.9217 70.1165 57.9226C69.8515 57.9391 69.5862 57.8962 69.3411 57.7973C69.0959 57.6984 68.8775 57.5461 68.7027 57.3522C68.3593 56.9092 68.1852 56.3642 68.2103 55.8104V55.1475C68.1797 54.588 68.3668 54.0377 68.7345 53.6057C68.915 53.4198 69.1348 53.274 69.3788 53.1782C69.6228 53.0824 69.8853 53.0389 70.1482 53.0507C70.6078 53.0347 71.0565 53.1891 71.4031 53.4824C71.672 53.7713 71.8293 54.1419 71.8479 54.5308Z" fill="#1D1D1B"></path><path d="M71.8478 54.5312H71.2919C71.2657 54.2145 71.1115 53.9208 70.863 53.7141C70.6117 53.5297 70.3042 53.432 69.9893 53.4366C69.7949 53.4291 69.6012 53.464 69.4226 53.5387C69.2439 53.6134 69.0847 53.726 68.9568 53.8683C68.6615 54.2249 68.5142 54.6758 68.5438 55.1325V55.7954C68.5218 56.244 68.65 56.6875 68.9091 57.0596C69.0373 57.2117 69.2002 57.3327 69.385 57.4129C69.5697 57.4932 69.7712 57.5306 69.9734 57.5222C70.3216 57.5333 70.6615 57.4178 70.9265 57.1984C71.0552 57.0995 71.1583 56.9726 71.2272 56.828C71.2962 56.6834 71.3292 56.5251 71.3236 56.3659V55.8108H70.0211V55.5025H71.6096V56.3967C71.6249 56.5196 71.6249 56.6438 71.6096 56.7667C71.569 56.9069 71.5103 57.0416 71.4348 57.1676C71.3513 57.303 71.2437 57.423 71.1171 57.5222C70.9703 57.6372 70.8036 57.726 70.6247 57.7843C70.4033 57.8494 70.1729 57.8806 69.9416 57.8768C69.6898 57.9 69.4359 57.8646 69.2011 57.7734C68.9662 57.6823 68.7572 57.538 68.5914 57.3526C68.2581 56.9062 68.0952 56.3611 68.1307 55.8108V55.1479C68.0882 54.592 68.2641 54.0412 68.6232 53.6062C68.7956 53.429 69.0057 53.2903 69.2388 53.1998C69.472 53.1093 69.7226 53.0691 69.9734 53.082C70.4093 53.0591 70.837 53.203 71.1648 53.4828C71.3123 53.6146 71.4306 53.7742 71.5125 53.9517C71.5944 54.1293 71.6383 54.3212 71.6413 54.5158H71.7366H71.832C71.8067 54.0785 71.614 53.6661 71.2919 53.3595C70.9307 53.0468 70.4566 52.886 69.9734 52.9124C69.6991 52.8966 69.4246 52.9395 69.1694 53.0381C68.9141 53.1366 68.6842 53.2885 68.4961 53.4828C68.1332 53.9182 67.9418 54.4647 67.956 55.0246V55.6875C67.9197 56.2736 68.0999 56.8531 68.4643 57.3217C68.6473 57.5233 68.8759 57.6811 69.1322 57.7828C69.3885 57.8844 69.6655 57.9271 69.9416 57.9076C70.195 57.9129 70.4475 57.8764 70.6882 57.7997C70.8851 57.742 71.0685 57.6477 71.2283 57.5222C71.3665 57.4079 71.4846 57.2725 71.5778 57.1213C71.6633 56.9801 71.7325 56.8301 71.7843 56.6742C71.7999 56.5359 71.7999 56.3963 71.7843 56.2579V55.1941H69.894V55.8725H71.1966V56.2579C71.2009 56.3931 71.1731 56.5274 71.1152 56.6504C71.0574 56.7734 70.971 56.8818 70.863 56.9671C70.6281 57.1589 70.3276 57.2579 70.0211 57.2447C69.8455 57.2557 69.6697 57.225 69.5092 57.1551C69.3486 57.0853 69.208 56.9784 69.0997 56.8438C68.867 56.5022 68.7554 56.0962 68.782 55.6875V55.0246C68.7441 54.6101 68.869 54.1971 69.1315 53.8683C69.2453 53.746 69.3854 53.6495 69.5419 53.5856C69.6983 53.5216 69.8673 53.4918 70.0369 53.4982C70.3104 53.4915 70.5785 53.5728 70.7994 53.7295C70.9103 53.8178 71.0002 53.9282 71.0633 54.0533C71.1263 54.1783 71.1609 54.315 71.1648 54.4541H71.8955V54.3616L71.8478 54.5312Z" fill="#2B352F"></path><path d="M78.1385 55.8415V55.1323C78.1095 54.573 78.2964 54.0233 78.6627 53.5906C78.8358 53.3988 79.0516 53.2478 79.2938 53.1489C79.536 53.0501 79.7982 53.0061 80.0605 53.0201C80.3226 53.0083 80.5841 53.0534 80.8259 53.1521C81.0677 53.2507 81.2838 53.4006 81.4584 53.5906C81.826 54.0226 82.0131 54.5728 81.9826 55.1323V55.8415C82.0247 56.4025 81.8363 56.9568 81.4584 57.3833C81.2779 57.5692 81.0581 57.715 80.8141 57.8108C80.5701 57.9066 80.3076 57.9501 80.0447 57.9383C79.784 57.951 79.5236 57.9078 79.282 57.8119C79.0404 57.716 78.8236 57.5696 78.6468 57.3833C78.4618 57.1713 78.3216 56.9261 78.2344 56.6615C78.1472 56.397 78.1146 56.1183 78.1385 55.8415ZM78.6944 55.1323V55.8415C78.6874 56.0774 78.7251 56.3126 78.8056 56.5353C78.8501 56.7128 78.9384 56.8772 79.0629 57.0142C79.1875 57.1512 79.3445 57.2567 79.5205 57.3216C79.6875 57.3848 79.8654 57.4162 80.0447 57.4141C80.2291 57.4174 80.4126 57.386 80.5847 57.3216C80.7479 57.2625 80.8947 57.1675 81.0136 57.0441C81.1469 56.8948 81.2494 56.7221 81.3155 56.5353C81.3826 56.3099 81.4147 56.0761 81.4108 55.8415V55.1323C81.4286 54.708 81.2875 54.2918 81.0136 53.9606C80.8888 53.8303 80.7376 53.7264 80.5695 53.6554C80.4014 53.5843 80.22 53.5477 80.0367 53.5477C79.8534 53.5477 79.672 53.5843 79.5039 53.6554C79.3359 53.7264 79.1847 53.8303 79.0598 53.9606C78.7973 54.2961 78.6676 54.7119 78.6944 55.1323Z" fill="#1D1D1B"></path><path d="M78.1384 55.8412H78.2178V55.132C78.1714 54.5732 78.354 54.0191 78.7262 53.5903C78.8887 53.4043 79.0945 53.2584 79.3264 53.1646C79.5584 53.0708 79.81 53.0318 80.0605 53.0507C80.3088 53.039 80.5567 53.0799 80.7871 53.1704C81.0174 53.2609 81.2248 53.3989 81.3948 53.5749C81.7484 54.0127 81.9236 54.5614 81.8873 55.1166V55.8258C81.9347 56.3822 81.7582 56.9348 81.3948 57.3675C81.2197 57.5403 81.0088 57.675 80.776 57.7627C80.5433 57.8504 80.294 57.8891 80.0446 57.8763C79.7976 57.8899 79.5504 57.8515 79.3201 57.7637C79.0897 57.6759 78.8817 57.5407 78.7103 57.3675C78.3469 56.9348 78.1704 56.3822 78.2178 55.8258H78.0431C78.0186 56.3871 78.2112 56.937 78.5832 57.3675C78.7696 57.5598 78.9968 57.7105 79.2492 57.809C79.5015 57.9075 79.773 57.9515 80.0446 57.938C80.3185 57.9507 80.5921 57.9063 80.8469 57.8079C81.1017 57.7096 81.3319 57.5594 81.5219 57.3675C81.8939 56.937 82.0865 56.3871 82.062 55.8258V55.1166C82.0763 54.5567 81.8848 54.0103 81.5219 53.5749C81.3406 53.3754 81.1146 53.2189 80.8613 53.1173C80.6079 53.0158 80.334 52.9719 80.0605 52.989C79.7846 52.9718 79.5083 53.0156 79.2524 53.1171C78.9965 53.2186 78.7677 53.3751 78.5832 53.5749C78.2203 54.0103 78.0289 54.5567 78.0431 55.1166V55.8258L78.1384 55.8412ZM78.6944 55.132V55.8412C78.6918 56.0858 78.7238 56.3297 78.7897 56.5658C78.8558 56.7606 78.9641 56.9393 79.1074 57.09C79.2323 57.2282 79.3906 57.3342 79.5681 57.3984C79.7423 57.4756 79.9326 57.5125 80.124 57.5063C80.3204 57.5106 80.5155 57.4738 80.6959 57.3984C80.8267 57.3035 80.935 57.1826 81.0136 57.0438C81.1624 56.8971 81.2715 56.717 81.3313 56.5196C81.4027 56.2842 81.4402 56.0403 81.4425 55.795V55.0858C81.4675 54.6297 81.3207 54.1803 81.0295 53.8215C80.9006 53.6753 80.7394 53.5591 80.5579 53.4817C80.3764 53.4043 80.1792 53.3677 79.9811 53.3744C79.7857 53.371 79.592 53.4093 79.4136 53.4866C79.2352 53.5639 79.0764 53.6782 78.9485 53.8215C78.663 54.1824 78.5219 54.6316 78.5514 55.0858H78.7262C78.6929 54.6718 78.8172 54.2604 79.0756 53.9295C79.19 53.8068 79.3298 53.7091 79.4858 53.6427C79.6419 53.5762 79.8107 53.5426 79.9811 53.544C80.1753 53.5247 80.3713 53.5527 80.5516 53.6254C80.7319 53.6981 80.8906 53.8132 81.0136 53.9603C81.2723 54.2851 81.3969 54.6919 81.3631 55.1012V55.8104C81.3659 56.0398 81.3338 56.2684 81.2678 56.4887C81.2215 56.6512 81.1373 56.8012 81.0216 56.9268C80.9058 57.0525 80.7618 57.1506 80.6006 57.2134C80.4391 57.2765 80.2663 57.3079 80.0923 57.3059C79.9233 57.3079 79.7558 57.2764 79.5998 57.2134C79.4503 57.1534 79.3151 57.0642 79.2027 56.9513C79.0818 56.8161 78.99 56.6588 78.9327 56.4887C78.8666 56.2684 78.8345 56.0398 78.8374 55.8104V55.1012L78.6944 55.132Z" fill="#2B352F"></path><path d="M88.2414 55.8412V55.132C88.2124 54.5727 88.3993 54.023 88.7656 53.5903C88.949 53.4089 89.1677 53.2649 89.4091 53.1666C89.6505 53.0682 89.9096 53.0176 90.1714 53.0176C90.4332 53.0176 90.6924 53.0682 90.9337 53.1666C91.1751 53.2649 91.3939 53.4089 91.5773 53.5903C91.9338 54.0273 92.1145 54.5752 92.0856 55.132V55.8412C92.1277 56.4022 91.9392 56.9565 91.5614 57.3829C91.3839 57.5685 91.1669 57.7142 90.9255 57.8101C90.6841 57.9059 90.424 57.9496 90.1635 57.938C89.9028 57.9506 89.6424 57.9075 89.4008 57.8116C89.1593 57.7156 88.9424 57.5693 88.7656 57.3829C88.3878 56.9565 88.1993 56.4022 88.2414 55.8412ZM88.8133 55.132V55.8412C88.8062 56.0771 88.8439 56.3123 88.9244 56.535C88.9773 56.724 89.0753 56.8983 89.2104 57.0437C89.3294 57.1671 89.4762 57.2621 89.6393 57.3213C89.8063 57.3844 89.9842 57.4158 90.1635 57.4138C90.3479 57.4159 90.5311 57.3845 90.7036 57.3213C90.8795 57.2564 91.0366 57.1508 91.1611 57.0139C91.2856 56.8769 91.374 56.7125 91.4184 56.535C91.4989 56.3123 91.5366 56.0771 91.5296 55.8412V55.132C91.5598 54.6992 91.424 54.2709 91.1484 53.9294C91.0235 53.7992 90.8723 53.6953 90.7042 53.6242C90.5361 53.5532 90.3548 53.5165 90.1714 53.5165C89.9881 53.5165 89.8067 53.5532 89.6386 53.6242C89.4706 53.6953 89.3194 53.7992 89.1945 53.9294C88.9189 54.2709 88.7831 54.6992 88.8133 55.132Z" fill="#1D1D1B"></path><path d="M88.2414 55.8418H88.3367V55.1326C88.2942 54.5767 88.4701 54.0259 88.8292 53.5909C88.9981 53.4083 89.2071 53.265 89.4409 53.1716C89.6746 53.0782 89.927 53.0371 90.1794 53.0513C90.426 53.033 90.6737 53.0708 90.9026 53.1618C91.1315 53.2528 91.3353 53.3945 91.4978 53.5754C91.8626 54.0082 92.0443 54.5593 92.0062 55.1172V55.8264C92.0309 56.1032 91.9987 56.3821 91.9115 56.6468C91.8242 56.9114 91.6836 57.1566 91.4978 57.3681C91.3258 57.5405 91.1176 57.6751 90.8875 57.7628C90.6573 57.8506 90.4105 57.8895 90.1635 57.8769C89.9164 57.8905 89.6693 57.8521 89.439 57.7643C89.2086 57.6764 89.0006 57.5413 88.8292 57.3681C88.6454 57.1559 88.5072 56.9102 88.4227 56.6455C88.3381 56.3807 88.3089 56.1022 88.3367 55.8264H88.162C88.1375 56.3877 88.3301 56.9376 88.7021 57.3681C88.8871 57.5621 89.1141 57.7139 89.3668 57.8125C89.6195 57.9112 89.8916 57.9542 90.1635 57.9385C90.435 57.951 90.7062 57.9065 90.9584 57.8081C91.2106 57.7097 91.4379 57.5596 91.6249 57.3681C92.0082 56.9431 92.2074 56.3907 92.1809 55.8264V55.1172C92.1951 54.5573 92.0037 54.0108 91.6408 53.5754C91.2487 53.2016 90.7211 52.9922 90.1714 52.9922C89.6218 52.9922 89.0942 53.2016 88.7021 53.5754C88.3392 54.0108 88.1478 54.5573 88.162 55.1172V55.8264L88.2414 55.8418ZM88.8133 55.1326H88.718V55.8418C88.7203 56.0872 88.7577 56.331 88.8292 56.5664C88.8889 56.7639 88.9981 56.9439 89.1469 57.0906C89.2689 57.225 89.421 57.3305 89.5916 57.3989C89.9597 57.5368 90.3673 57.5368 90.7354 57.3989C90.9129 57.3348 91.0712 57.2288 91.196 57.0906C91.3448 56.9439 91.454 56.7639 91.5137 56.5664C91.5796 56.3302 91.6117 56.0864 91.609 55.8418V55.1326C91.6386 54.6784 91.4975 54.2293 91.2119 53.8684C91.0816 53.7238 90.9201 53.6089 90.739 53.5316C90.5578 53.4543 90.3613 53.4167 90.1635 53.4213C89.968 53.4168 89.7739 53.4546 89.5954 53.532C89.4168 53.6093 89.2582 53.7242 89.131 53.8684C88.8397 54.2271 88.6929 54.6765 88.718 55.1326H88.9562C88.923 54.7186 89.0473 54.3072 89.3057 53.9763C89.4218 53.8534 89.5629 53.7552 89.7202 53.6881C89.8774 53.621 90.0473 53.5863 90.2191 53.5863C90.3909 53.5863 90.5608 53.621 90.718 53.6881C90.8753 53.7552 91.0164 53.8534 91.1325 53.9763C91.3912 54.3011 91.5158 54.7079 91.482 55.1172V55.8264C91.4848 56.0558 91.4527 56.2844 91.3867 56.5047C91.3293 56.6749 91.2375 56.8321 91.1166 56.9673C91.0014 57.077 90.8669 57.1657 90.7195 57.2293C90.558 57.2925 90.3852 57.3239 90.2112 57.3219C90.0437 57.3408 89.874 57.3259 89.7127 57.2782C89.5514 57.2304 89.402 57.1508 89.2739 57.0443C89.153 56.9092 89.0612 56.7519 89.0039 56.5818C88.9379 56.3615 88.9057 56.1329 88.9086 55.9035V55.1943L88.8133 55.1326Z" fill="#2B352F"></path><path d="M98.4871 53.0975H100.076C100.414 53.0887 100.75 53.1518 101.06 53.2825C101.328 53.3793 101.56 53.551 101.728 53.7759C101.893 53.9999 102.017 54.2504 102.093 54.5159C102.173 54.8232 102.21 55.1395 102.204 55.4563C102.212 55.7733 102.175 56.0898 102.093 56.3968C102.019 56.6653 101.901 56.9204 101.743 57.1522C101.571 57.3717 101.34 57.5421 101.076 57.6456C100.759 57.7722 100.418 57.8301 100.076 57.8152H98.4871V53.0975ZM99.0589 53.6063V57.3218H100.076C101.124 57.3218 101.664 56.7051 101.664 55.4563C101.664 54.2075 101.156 53.6063 100.076 53.6063H99.0589Z" fill="#1D1D1B"></path><path d="M98.4871 53.0975V53.19H100.076C100.402 53.1838 100.726 53.2415 101.029 53.3596C101.28 53.4552 101.499 53.6151 101.664 53.8221C101.824 54.0357 101.943 54.2761 102.014 54.5313C102.086 54.8347 102.123 55.1449 102.125 55.4563C102.125 55.7678 102.088 56.0782 102.014 56.3814C101.932 56.618 101.814 56.8415 101.664 57.0443C101.504 57.2599 101.284 57.426 101.029 57.5222C100.72 57.6403 100.391 57.6979 100.06 57.6918H98.63V53.0666H98.4871V57.8768H100.076C100.434 57.8838 100.791 57.8209 101.124 57.6918C101.4 57.5799 101.642 57.3991 101.823 57.1676C101.986 56.931 102.109 56.6708 102.188 56.3968C102.255 56.1029 102.292 55.8034 102.299 55.5026C102.3 55.1748 102.258 54.8484 102.172 54.5313C102.093 54.2572 101.97 53.9971 101.807 53.7604C101.621 53.5333 101.381 53.3534 101.108 53.2362C100.777 53.1198 100.427 53.0624 100.076 53.0666H98.4871V53.0975ZM99.0589 53.6062V57.3989H100.076C100.307 57.416 100.54 57.3803 100.755 57.2946C100.97 57.209 101.162 57.0757 101.315 56.9055C101.591 56.4897 101.714 55.9951 101.664 55.5026C101.704 54.9876 101.558 54.4751 101.251 54.0533C101.094 53.8885 100.902 53.759 100.688 53.6737C100.474 53.5885 100.243 53.5497 100.012 53.56H98.9954V53.6525H100.076C100.28 53.6378 100.485 53.6691 100.676 53.744C100.866 53.8189 101.035 53.9353 101.172 54.0842C101.456 54.4745 101.591 54.9489 101.553 55.4255C101.596 55.9026 101.461 56.3788 101.172 56.7668C101.038 56.9186 100.868 57.037 100.678 57.1121C100.487 57.1872 100.281 57.2168 100.076 57.1985H99.2337V53.6062H99.1225H99.0589Z" fill="#2B352F"></path><path d="M115.961 55.1325V55.8262C115.93 56.2519 116.06 56.6738 116.326 57.0134C116.447 57.15 116.599 57.2573 116.77 57.3269C116.941 57.3965 117.126 57.4264 117.311 57.4142C117.628 57.4323 117.94 57.3331 118.185 57.1367C118.285 57.0459 118.365 56.9361 118.419 56.8141C118.474 56.6921 118.502 56.5605 118.502 56.4275H119.058C119.06 56.6029 119.022 56.7766 118.947 56.9363C118.874 57.1104 118.772 57.2718 118.645 57.4142C118.485 57.5766 118.29 57.7029 118.073 57.7842C117.821 57.8815 117.551 57.9287 117.279 57.923C117.022 57.9353 116.766 57.8935 116.527 57.8003C116.289 57.7072 116.074 57.5649 115.897 57.3834C115.54 56.9477 115.364 56.3973 115.405 55.8417V55.117C115.368 54.5594 115.55 54.0088 115.913 53.5753C116.084 53.3905 116.296 53.2449 116.532 53.1489C116.768 53.0529 117.023 53.009 117.279 53.0203C117.546 53.0158 117.81 53.063 118.058 53.159C118.27 53.2381 118.461 53.3649 118.614 53.5291C118.897 53.8149 119.057 54.1959 119.058 54.5929H118.502C118.502 54.4539 118.472 54.3166 118.414 54.1893C118.357 54.0621 118.273 53.9475 118.169 53.8528C118.042 53.7412 117.893 53.6551 117.732 53.5993C117.57 53.5435 117.399 53.5192 117.228 53.5278C117.056 53.5364 116.889 53.5777 116.734 53.6494C116.579 53.721 116.441 53.8216 116.326 53.9453C116.066 54.288 115.937 54.7076 115.961 55.1325Z" fill="#1D1D1B"></path><path d="M115.961 55.1321V55.8258C115.923 56.2713 116.053 56.7149 116.326 57.0747C116.458 57.2202 116.623 57.3347 116.807 57.4095C116.991 57.4842 117.191 57.5174 117.39 57.5063C117.731 57.5179 118.064 57.4083 118.328 57.198C118.434 57.098 118.518 56.9782 118.576 56.8457C118.633 56.7132 118.662 56.5708 118.661 56.4271V56.5196H119.217V56.4271H119.122C119.12 56.5907 119.087 56.7525 119.027 56.9051C118.959 57.0726 118.856 57.2248 118.725 57.3522C118.582 57.5098 118.402 57.6315 118.201 57.7068C117.956 57.7902 117.698 57.8319 117.438 57.8301C117.194 57.8425 116.949 57.8034 116.722 57.7156C116.494 57.6278 116.289 57.4933 116.12 57.3213C115.766 56.8841 115.596 56.3334 115.643 55.7796V55.055C115.601 54.4991 115.776 53.9483 116.136 53.5132C116.296 53.3344 116.498 53.1941 116.724 53.1032C116.95 53.0123 117.194 52.9732 117.438 52.9891C117.692 52.9872 117.945 53.0289 118.185 53.1124C118.387 53.1859 118.568 53.3079 118.709 53.467C118.844 53.6058 118.952 53.7679 119.027 53.9449C119.089 54.113 119.122 54.2904 119.122 54.4691H119.217H118.661C118.662 54.3195 118.631 54.1714 118.571 54.0336C118.511 53.8959 118.423 53.7713 118.312 53.6674C118.177 53.5465 118.019 53.4528 117.846 53.3919C117.674 53.331 117.49 53.3041 117.307 53.3127C117.124 53.3213 116.944 53.3653 116.778 53.4421C116.612 53.5189 116.464 53.6269 116.342 53.7599C116.062 54.123 115.927 54.5719 115.961 55.0241C115.931 54.6129 116.049 54.2044 116.294 53.8678C116.401 53.7405 116.537 53.6392 116.692 53.5723C116.846 53.5053 117.015 53.4745 117.184 53.4824C117.336 53.4753 117.488 53.499 117.63 53.5521C117.773 53.6052 117.902 53.6865 118.01 53.7908C118.105 53.8782 118.18 53.9834 118.232 54.1C118.284 54.2166 118.311 54.3421 118.312 54.4691V54.5616H119.138V54.577C119.14 54.3766 119.103 54.1776 119.027 53.9912C118.947 53.7912 118.828 53.6079 118.677 53.4516C118.514 53.2817 118.313 53.15 118.089 53.0661C117.831 52.97 117.556 52.9229 117.279 52.9274C117.01 52.9104 116.741 52.9545 116.493 53.0562C116.245 53.1579 116.024 53.3144 115.85 53.5132C115.48 53.9452 115.288 54.4941 115.309 55.055V55.7796C115.291 56.3375 115.477 56.8838 115.834 57.3213C116.02 57.5088 116.245 57.6554 116.494 57.7511C116.744 57.8469 117.011 57.8896 117.279 57.8764C117.561 57.8806 117.841 57.8335 118.105 57.7376C118.334 57.6558 118.541 57.5239 118.709 57.3522C118.838 57.197 118.944 57.0259 119.027 56.8434C119.086 56.7113 119.124 56.5708 119.138 56.4271V56.3346H118.344V56.4271C118.345 56.5485 118.321 56.6689 118.272 56.7805C118.222 56.8921 118.149 56.9923 118.058 57.0747C117.832 57.2589 117.542 57.3526 117.247 57.3367C117.075 57.3477 116.902 57.3201 116.742 57.2559C116.583 57.1918 116.44 57.0928 116.326 56.9667C116.076 56.6384 115.957 56.2329 115.993 55.8258V55.1321H115.961Z" fill="#2B352F"></path><path d="M125.492 57.8154H124.904L126.651 53.0977H127.207L128.939 57.8154H128.351L127.843 56.3661H126L125.492 57.8154ZM126.921 53.7914L126.175 55.919H127.684L126.921 53.7914Z" fill="#1D1D1B"></path><path d="M125.492 57.8152H125.031L126.715 53.19H127.144L128.828 57.8152H128.399L127.89 56.3659H125.936L125.412 57.9077H125.492L125.968 56.5201H127.684L128.192 57.9693H128.986L127.191 53.082H126.604L124.793 57.9693H125.571L125.492 57.8152ZM126.921 53.7912V53.6987L126.111 56.0113H127.874L127.08 53.6987V53.7912L127.779 55.8263H126.508L127.08 53.8066L126.921 53.7912Z" fill="#2B352F"></path><path d="M137.945 57.3212V57.8146H135.118V53.1123H135.69V57.3212H137.945Z" fill="#1D1D1B"></path><path d="M137.946 57.3219H137.866V57.7382H135.197V53.1901H135.595V57.399H137.946V57.3219H137.866H137.946V57.2294H135.769V53.0205H135.118H135.023V57.9078H138.041V57.3219V57.2294H137.946V57.3219Z" fill="#2B352F"></path><path d="M146.921 57.3212V57.8146H144.077V53.1123H144.649V57.3212H146.921Z" fill="#1D1D1B"></path><path d="M146.921 57.3219H146.825V57.7382H144.173V53.1901H144.57V57.399H146.921V57.3219H146.825H146.921V57.2294H144.744V53.0205H144.077H143.998V57.9078H147V57.3219V57.2294H146.921V57.3219Z" fill="#2B352F"></path><path d="M89.2898 22.6326V13.1664H78.7898V22.6326H73.9131V0H78.7898V9.12706H89.2898V0H94.1665V22.6326H89.2898Z" fill="#2B352F"></path><path d="M104.714 22.6327H99.8215V5.06025e-05H109.607C110.777 -0.0159891 111.942 0.155922 113.054 0.508823C114.019 0.798006 114.908 1.28722 115.659 1.94263C116.356 2.57968 116.899 3.35903 117.247 4.2244C117.662 5.20153 117.862 6.2516 117.835 7.30787C117.834 7.99557 117.738 8.68001 117.549 9.34295C117.366 9.98984 117.088 10.6077 116.723 11.1776C116.363 11.755 115.913 12.2751 115.389 12.7194C114.851 13.1546 114.245 13.5034 113.594 13.7523L118.502 22.6944H113.038L108.701 14.4307H104.714V22.6327ZM104.714 10.7922H108.987C110.03 10.8542 111.058 10.529 111.862 9.88256C112.21 9.5511 112.481 9.15121 112.656 8.70977C112.832 8.26833 112.908 7.79558 112.879 7.32328C112.884 6.82798 112.793 6.33621 112.609 5.87405C112.431 5.45617 112.166 5.07833 111.831 4.76401C111.465 4.45298 111.038 4.21699 110.576 4.07023C110.064 3.90266 109.527 3.81928 108.987 3.82355H104.714V10.7922Z" fill="#2B352F"></path><path d="M138.2 22.6326V13.1664H127.684V22.6326H122.807V0H127.684V9.12706H138.2V0H143.076V22.6326H138.2Z" fill="#2B352F"></path><path d="M73.9131 48.3485V25.7158H78.6786L89.671 39.8073H89.2104V25.7158H94.0871V48.3485H89.957L78.6151 34.1799V48.3485H73.9131Z" fill="#2B352F"></path><path d="M114.753 43.415C114.592 44.2046 114.268 44.9545 113.8 45.6197C113.335 46.2794 112.741 46.8449 112.053 47.2847C111.309 47.7672 110.488 48.1266 109.623 48.3485C108.643 48.6024 107.634 48.7269 106.62 48.7185C105.38 48.7394 104.146 48.5355 102.983 48.1173C101.952 47.7382 101.023 47.1373 100.266 46.3597C99.4939 45.5512 98.9137 44.5881 98.5665 43.5383C98.1627 42.3234 97.9642 41.053 97.9788 39.7765C97.9615 38.4885 98.1655 37.2067 98.5824 35.9838C98.9285 34.9198 99.5084 33.9414 100.282 33.1162C101.034 32.3253 101.956 31.7043 102.983 31.297C105.268 30.4752 107.782 30.4752 110.067 31.297C111.089 31.6568 112.016 32.2306 112.784 32.9774C113.502 33.7764 114.043 34.7107 114.372 35.7217C114.765 36.9119 114.953 38.1569 114.928 39.4065V40.794H102.697V41.0407C102.705 41.6293 102.812 42.2126 103.014 42.7675C103.196 43.2538 103.477 43.6996 103.84 44.0779C104.192 44.4474 104.627 44.7325 105.111 44.9105C105.617 45.1053 106.156 45.2048 106.7 45.2034C107.505 45.2304 108.305 45.0719 109.035 44.7409C109.622 44.4689 110.085 43.997 110.337 43.415H114.753ZM106.573 34.1646C106.03 34.1495 105.491 34.2386 104.984 34.4267C104.541 34.603 104.137 34.8594 103.793 35.1821C103.448 35.5191 103.173 35.9168 102.983 36.3538C102.767 36.8432 102.638 37.3645 102.601 37.8956H110.21C110.21 36.8923 109.825 35.925 109.13 35.1821C108.797 34.8527 108.399 34.5925 107.959 34.4175C107.52 34.2426 107.048 34.1565 106.573 34.1646Z" fill="#2B352F"></path><path d="M124.443 42.6909L121.139 48.349H116.135L121.727 39.7924L116.104 31.0508H121.504L124.681 36.7244H124.983L128.16 31.0508H133.291L127.715 39.592L133.355 48.349H128.113L124.793 42.6909H124.443Z" fill="#2B352F"></path><path d="M143.061 25.6699V29.9405H146.905V33.5328H143.061V42.5519C143.034 42.8526 143.071 43.1553 143.17 43.4416C143.268 43.7279 143.425 43.9917 143.632 44.217C144.149 44.6135 144.803 44.8013 145.459 44.7412H146.253H146.905V48.2255L145.809 48.3642C145.359 48.388 144.908 48.388 144.458 48.3642C143.488 48.3768 142.519 48.2889 141.567 48.1021C140.865 47.9617 140.203 47.6722 139.629 47.2542C139.121 46.8834 138.739 46.3732 138.533 45.7895C138.286 45.0963 138.172 44.3644 138.2 43.6311V33.5328H135.293V29.9405H138.2V25.6699H143.061Z" fill="#2B352F"></path></g><defs><clipPath id="clip0_161_1424"><rect width="147" height="58" fill="white"></rect></clipPath></defs></svg>